<svg xmlns="http://www.w3.org/2000/svg" xml:space="preserve" fill-rule="evenodd" stroke-linejoin="round" stroke-miterlimit="2" clip-rule="evenodd" viewBox="0 0 1080 1080"><path fill="none" d="M0 0h1080v1080H0z"/><path fill="#f2f2f2" d="m540.13 632.58-150.37 86.66 150.37 86.47 150.63-86.36-150.63-86.77Z"/><path fill="#9f9f9f" d="M540.13 461.06V287.78l150.56 87.32v172.7l-150.56-86.75Z"/><path fill="#ececec" d="M540.13 461.06V287.78L389.91 373.9l-.34 173.92 150.56-86.77Z"/><path fill="#3fd1d1" d="M988.18 805.71 764.52 677.07 540.13 805.7v257.88l448.05-257.88ZM540.13 461.05l-150.22 86.77V373.9l-74.06 42.46v260.7l224.28-129.25v-86.76Z"/><path fill="#247d7e" d="m92.2 805.71-.13-517.32 223.78 127.97v260.7l224.28 128.65v257.88L92.2 805.71Zm447.93-344.66 150.56 86.77V375.1l73.62 42.7.1 259.32L540.13 547.8v-86.76Z"/><path fill="#40e3e4" d="m389.57 719.35-73.72-42.28 224.28-129.25 224.28 129.3-73.65 42.23-150.63-86.77-150.56 86.77ZM540.13 30.51 988.19 288.4 764.3 417.8 540.13 287.8 315.85 416.36 92.07 288.4 540.13 30.52Z"/></svg>
